<svg xmlns="http://www.w3.org/2000/svg" class="icon" version="1.1" viewBox="0 0 1024 1024" style="width:1em;height:1em;vertical-align:middle;fill:currentColor;overflow:hidden"><path d="M67.05879 287.384289 290.651194 287.384289 290.651194 63.791885 67.05879 63.791885 67.05879 287.384289ZM402.447397 958.161503 626.038778 958.161503 626.038778 734.569098 402.447397 734.569098 402.447397 958.161503ZM67.05879 958.161503 290.651194 958.161503 290.651194 734.569098 67.05879 734.569098 67.05879 958.161503ZM67.05879 622.772896 290.651194 622.772896 290.651194 399.180492 67.05879 399.180492 67.05879 622.772896ZM402.447397 622.772896 626.038778 622.772896 626.038778 399.180492 402.447397 399.180492 402.447397 622.772896ZM737.83498 63.791885 737.83498 287.384289 961.427384 287.384289 961.427384 63.791885 737.83498 63.791885ZM402.447397 287.384289 626.038778 287.384289 626.038778 63.791885 402.447397 63.791885 402.447397 287.384289ZM737.83498 622.772896 961.427384 622.772896 961.427384 399.180492 737.83498 399.180492 737.83498 622.772896ZM737.83498 958.161503 961.427384 958.161503 961.427384 734.569098 737.83498 734.569098 737.83498 958.161503Z"/></svg>