<svg class="icon" style="width: 1em; height: 1em;vertical-align: middle;fill: currentColor;overflow: hidden;" viewBox="0 0 1024 1024" version="1.1" xmlns="http://www.w3.org/2000/svg"><path d="M40.421 208.84l943.158 0c22.339 0 40.421-18.082 40.421-40.421 0-22.312-18.082-40.421-40.421-40.421l-943.158 0c-22.339 0-40.421 18.109-40.421 40.421 0 22.339 18.082 40.421 40.421 40.421zM983.579 478.314l-943.158 0c-22.339 0-40.421 18.109-40.421 40.421s18.082 40.421 40.421 40.421l943.158 0c22.339 0 40.421-18.109 40.421-40.421s-18.082-40.421-40.421-40.421zM983.579 828.63l-943.158 0c-22.339 0-40.421 18.109-40.421 40.421s18.082 40.421 40.421 40.421l943.158 0c22.339 0 40.421-18.109 40.421-40.421s-18.082-40.421-40.421-40.421z" /></svg>