<svg xmlns="http://www.w3.org/2000/svg" class="icon" version="1.1" viewBox="0 0 1707 1024" style="width:1.6669921875em;height:1em;vertical-align:middle;fill:currentColor;overflow:hidden"><path d="M1629.77017 866.127747 1399.373217 733.876824C1356.71163 708.279871 1322.582359 682.682919 1322.582359 639.996953L1322.582359 341.341459C1322.582359 298.679871 1356.71163 277.349077 1399.373217 251.727747L1629.77017 119.476824C1672.431758 93.879871 1706.561028 115.210665 1706.561028 157.872253L1706.561028 827.732318C1706.561028 874.660064 1672.431758 891.724699 1629.77017 866.127747ZM1032.483561 1024 162.138412 1024C72.549077 1024 0.024378 951.475301 0.024378 861.861588L0.024378 162.138412C0.024378 72.549077 72.549077 0 162.138412 0L1032.483561 0C1122.072896 0 1194.597596 72.549077 1194.597596 162.138412L1194.597596 861.861588C1194.597596 951.475301 1122.072896 1024 1032.483561 1024ZM332.784764 221.864635C277.324699 230.421331 230.396953 277.349077 217.598476 337.075301 196.267682 439.463112 285.857017 533.342983 392.510987 512.012189 447.995429 499.213713 494.923176 452.285966 507.721652 392.535365 529.052446 285.881395 439.463112 196.267682 332.784764 221.864635Z"/></svg>